<svg width="20" height="20" viewBox="0 0 20 20" fill="none" xmlns="http://www.w3.org/2000/svg">
<path d="M8.33398 4.16667C8.33398 3.72464 8.50958 3.30072 8.82214 2.98816C9.1347 2.67559 9.55862 2.5 10.0007 2.5C10.4427 2.5 10.8666 2.67559 11.1792 2.98816C11.4917 3.30072 11.6673 3.72464 11.6673 4.16667C12.6243 4.61919 13.4402 5.32361 14.0274 6.20442C14.6146 7.08523 14.951 8.10923 15.0007 9.16667V11.6667C15.0634 12.1848 15.2468 12.6809 15.5363 13.1151C15.8258 13.5493 16.2132 13.9095 16.6673 14.1667H3.33398C3.7881 13.9095 4.17549 13.5493 4.46497 13.1151C4.75446 12.6809 4.93794 12.1848 5.00065 11.6667V9.16667C5.05028 8.10923 5.38674 7.08523 5.97394 6.20442C6.56115 5.32361 7.37698 4.61919 8.33398 4.16667" stroke="#868E96" stroke-linecap="round" stroke-linejoin="round"/>
<path d="M7.5 14.1667V15C7.5 15.6631 7.76339 16.2989 8.23223 16.7678C8.70107 17.2366 9.33696 17.5 10 17.5C10.663 17.5 11.2989 17.2366 11.7678 16.7678C12.2366 16.2989 12.5 15.6631 12.5 15V14.1667" stroke="#868E96" stroke-linecap="round" stroke-linejoin="round"/>
</svg>
