<svg width="20" height="20" viewBox="0 0 20 20" fill="none" xmlns="http://www.w3.org/2000/svg">
<path d="M3.5 3.5L16.5 16.5" stroke="#CED4DA" stroke-linecap="round" stroke-linejoin="round"/>
<path d="M7.79315 4.45833C7.96732 4.3525 8.14732 4.255 8.33398 4.16667C8.33398 3.72464 8.50958 3.30072 8.82214 2.98816C9.1347 2.67559 9.55862 2.5 10.0007 2.5C10.4427 2.5 10.8666 2.67559 11.1792 2.98816C11.4917 3.30072 11.6673 3.72464 11.6673 4.16667C12.6243 4.61919 13.4402 5.32361 14.0274 6.20442C14.6146 7.08523 14.951 8.10923 15.0007 9.16667V11.6667M14.1673 14.1667H3.33398C3.7881 13.9095 4.17549 13.5493 4.46497 13.1151C4.75446 12.6809 4.93794 12.1848 5.00065 11.6667V9.16667C5.05294 8.05385 5.42279 6.97927 6.06648 6.07L14.1673 14.1667Z" stroke="#CED4DA" stroke-linecap="round" stroke-linejoin="round"/>
<path d="M7.5 14.167V15.0003C7.5 15.6634 7.76339 16.2993 8.23223 16.7681C8.70107 17.2369 9.33696 17.5003 10 17.5003C10.663 17.5003 11.2989 17.2369 11.7678 16.7681C12.2366 16.2993 12.5 15.6634 12.5 15.0003V14.167" stroke="#CED4DA" stroke-linecap="round" stroke-linejoin="round"/>
</svg>
