<svg width="32" height="32" viewBox="0 0 32 32" fill="none" xmlns="http://www.w3.org/2000/svg">
<rect x="10" y="5" width="12" height="12" rx="6" stroke="#343A40" stroke-width="2"/>
<path d="M5 26C5 26.5523 5.44772 27 6 27C6.55228 27 7 26.5523 7 26H5ZM25 26C25 26.5523 25.4477 27 26 27C26.5523 27 27 26.5523 27 26H25ZM7 26C7 21.1638 10.8847 18 16 18V16C10.0696 16 5 19.7905 5 26H7ZM16 18C18.1004 18 20.3766 18.5789 22.1004 19.8572C23.7853 21.1066 25 23.0609 25 26H27C27 22.4162 25.4761 19.8706 23.2917 18.2507C21.1462 16.6597 18.4224 16 16 16V18Z" fill="#343A40"/>
</svg>
