<svg width="32" height="32" viewBox="0 0 32 32" fill="none" xmlns="http://www.w3.org/2000/svg">
<path d="M13.375 7.57143C13.375 6.88944 13.6516 6.23539 14.1438 5.75315C14.6361 5.27092 15.3038 5 16 5C16.6962 5 17.3639 5.27092 17.8562 5.75315C18.3484 6.23539 18.625 6.88944 18.625 7.57143C20.1323 8.26961 21.4172 9.35642 22.3421 10.7154C23.2669 12.0744 23.7968 13.6542 23.875 15.2857V19.1429C23.9738 19.9422 24.2628 20.7076 24.7187 21.3776C25.1746 22.0475 25.7848 22.6032 26.5 23H5.5C6.21523 22.6032 6.82537 22.0475 7.28131 21.3776C7.73724 20.7076 8.02623 19.9422 8.125 19.1429V15.2857C8.20317 13.6542 8.73308 12.0744 9.65793 10.7154C10.5828 9.35642 11.8677 8.26961 13.375 7.57143" stroke="#343A40" stroke-width="2" stroke-linecap="round" stroke-linejoin="round"/>
<path d="M13 23V24C13 24.7956 13.3161 25.5587 13.8787 26.1213C14.4413 26.6839 15.2044 27 16 27C16.7956 27 17.5587 26.6839 18.1213 26.1213C18.6839 25.5587 19 24.7956 19 24V23" stroke="#343A40" stroke-width="2" stroke-linecap="round" stroke-linejoin="round"/>
</svg>
