<?xml version="1.0" standalone="no"?>
<!DOCTYPE svg PUBLIC "-//W3C//DTD SVG 20010904//EN"
 "http://www.w3.org/TR/2001/REC-SVG-20010904/DTD/svg10.dtd">
<svg version="1.0" xmlns="http://www.w3.org/2000/svg"
 width="700.000000pt" height="700.000000pt" viewBox="0 0 700.000000 700.000000"
 preserveAspectRatio="xMidYMid meet">
<metadata>
Created by potrace 1.14, written by Peter Selinger 2001-2017
</metadata>
<g transform="translate(0.000000,700.000000) scale(0.100000,-0.100000)"
fill="#000000" stroke="none">
<path d="M1975 6989 c-418 -40 -862 -224 -1183 -493 -103 -86 -273 -262 -348
-362 -245 -326 -395 -716 -433 -1124 -15 -158 -15 -2862 0 -3020 78 -843 628
-1560 1420 -1854 122 -45 260 -81 419 -109 l125 -22 1520 0 1520 0 140 23
c493 83 898 296 1240 653 315 328 502 713 582 1194 17 103 18 208 18 1625 0
1668 3 1571 -62 1840 -132 546 -488 1034 -974 1336 -274 169 -619 283 -949
313 -140 13 -2900 13 -3035 0z m2535 -1555 c225 -46 418 -146 583 -303 236
-224 359 -506 360 -826 0 -245 -59 -442 -201 -660 -54 -84 -665 -696 -782
-784 -303 -227 -710 -292 -1072 -171 -104 35 -158 68 -191 118 -70 107 -60
235 28 325 79 82 172 95 321 47 88 -29 111 -33 214 -33 139 0 238 28 342 95
94 61 681 643 727 721 62 106 83 180 89 307 8 200 -45 338 -183 475 -167 168
-395 233 -617 176 -143 -37 -222 -87 -383 -242 -115 -111 -139 -124 -235 -124
-88 0 -136 21 -192 83 -70 77 -88 195 -43 283 44 85 291 306 428 383 243 136
539 183 807 130z m-1084 -1079 c111 -20 251 -66 303 -101 130 -86 147 -279 34
-389 -83 -81 -171 -93 -319 -45 -88 29 -111 33 -214 33 -138 0 -238 -28 -340
-94 -74 -47 -617 -572 -687 -664 -54 -71 -106 -179 -122 -253 -16 -76 -14
-228 4 -297 46 -175 175 -335 335 -414 191 -94 408 -94 593 0 75 38 125 76
242 190 115 111 139 124 235 124 88 0 136 -21 192 -83 74 -82 89 -203 34 -295
-30 -52 -222 -239 -309 -301 -350 -250 -808 -291 -1193 -107 -130 62 -208 115
-307 210 -236 224 -358 505 -360 826 -1 244 59 440 201 660 54 84 665 696 782
784 139 104 322 183 496 215 107 19 292 19 400 1z"/>
</g>
</svg>
