<svg width="48" height="48" viewBox="0 0 48 48" fill="none" xmlns="http://www.w3.org/2000/svg">
<rect width="48" height="48" rx="15" fill="#FF69B4"/>
<g clip-path="url(#clip0_353_2276)">
<path fill-rule="evenodd" clip-rule="evenodd" d="M19.0262 18.5554C20.0153 18.1448 21.0775 17.9333 22.1505 17.9333C23.2235 17.9333 24.2856 18.1448 25.2748 18.5554C26.2286 18.9514 26.6768 20.0362 26.2761 20.9785C25.8753 21.9208 24.7773 22.3636 23.8235 21.9677C23.2938 21.7478 22.7251 21.6345 22.1505 21.6345C21.5759 21.6345 21.0071 21.7478 20.4774 21.9677C19.9477 22.1876 19.4678 22.5097 19.0657 22.9152L19.0522 22.9286L15.5297 26.4088C14.7079 27.2206 14.2463 28.3217 14.2463 29.4698C14.2463 30.6179 14.7079 31.719 15.5297 32.5308C16.3514 33.3427 17.4658 33.7987 18.6279 33.7987C19.79 33.7987 20.9045 33.3427 21.7262 32.5308L22.6107 31.6569C23.3422 30.9342 24.5283 30.9342 25.2598 31.6569C25.9913 32.3796 25.9913 33.5514 25.2598 34.2741L24.3752 35.148C22.8509 36.654 20.7836 37.5 18.6279 37.5C16.4723 37.5 14.4049 36.654 12.8806 35.148C11.3563 33.6421 10.5 31.5996 10.5 29.4698C10.5 27.3401 11.3563 25.2976 12.8806 23.7916L16.3969 20.3177C17.1463 19.5638 18.0401 18.9648 19.0262 18.5554Z" fill="white"/>
<path fill-rule="evenodd" clip-rule="evenodd" d="M28.9739 29.4445C27.9847 29.8552 26.9225 30.0667 25.8495 30.0667C24.7765 30.0667 23.7144 29.8552 22.7252 29.4445C21.7714 29.0486 21.3232 27.9638 21.7239 27.0215C22.1247 26.0792 23.2227 25.6364 24.1765 26.0323C24.7062 26.2522 25.275 26.3655 25.8495 26.3655C26.4241 26.3655 26.9929 26.2522 27.5226 26.0323C28.0523 25.8124 28.5322 25.4903 28.9343 25.0848L28.9478 25.0714L32.4703 21.5912C33.2921 20.7793 33.7537 19.6783 33.7537 18.5302C33.7537 17.3821 33.2921 16.281 32.4703 15.4692C31.6486 14.6573 30.5342 14.2013 29.3721 14.2013C28.21 14.2013 27.0955 14.6573 26.2738 15.4692L25.3893 16.3431C24.6578 17.0658 23.4717 17.0658 22.7402 16.3431C22.0087 15.6204 22.0087 14.4486 22.7402 13.7259L23.6248 12.852C25.1491 11.346 27.2164 10.5 29.3721 10.5C31.5277 10.5 33.5951 11.346 35.1194 12.852C36.6437 14.3579 37.5 16.4004 37.5 18.5302C37.5 20.6599 36.6437 22.7024 35.1194 24.2084L31.6031 27.6823C30.8537 28.4362 29.9599 29.0352 28.9739 29.4445Z" fill="white"/>
<path d="M19.0262 18.5554L18.9902 18.4689L19.0262 18.5554ZM25.2748 18.5554L25.2389 18.642L25.2748 18.5554ZM23.8235 21.9677L23.7876 22.0543L23.8235 21.9677ZM20.4774 21.9677L20.5134 22.0543L20.4774 21.9677ZM19.0657 22.9152L19.1319 22.9815L19.1322 22.9812L19.0657 22.9152ZM19.0522 22.9286L19.1181 22.9953L19.1185 22.995L19.0522 22.9286ZM15.5297 26.4088L15.4638 26.3421L15.5297 26.4088ZM15.5297 32.5308L15.5955 32.4641L15.5297 32.5308ZM18.6279 33.7987V33.8925V33.7987ZM21.7262 32.5308L21.7921 32.5975L21.7262 32.5308ZM22.6107 31.6569L22.5448 31.5902H22.5448L22.6107 31.6569ZM25.2598 31.6569L25.1939 31.7236L25.2598 31.6569ZM25.2598 34.2741L25.1939 34.2074L25.2598 34.2741ZM24.3752 35.148L24.4411 35.2147V35.2147L24.3752 35.148ZM18.6279 37.5V37.5937V37.5ZM12.8806 35.148L12.8147 35.2147L12.8806 35.148ZM10.5 29.4698H10.4062H10.5ZM12.8806 23.7916L12.8147 23.7249L12.8806 23.7916ZM16.3969 20.3177L16.4628 20.3844L16.4633 20.3838L16.3969 20.3177ZM25.8495 30.0667V30.1605V30.0667ZM28.9739 29.4445L28.9379 29.358L28.9739 29.4445ZM22.7252 29.4445L22.7611 29.358H22.7611L22.7252 29.4445ZM21.7239 27.0215L21.8102 27.0582L21.7239 27.0215ZM24.1765 26.0323L24.2124 25.9457L24.1765 26.0323ZM27.5226 26.0323L27.5585 26.1189L27.5226 26.0323ZM28.9343 25.0848L28.8681 25.0185L28.8678 25.0188L28.9343 25.0848ZM28.9478 25.0714L28.8819 25.0047L28.8815 25.005L28.9478 25.0714ZM32.4703 21.5912L32.4045 21.5245L32.4703 21.5912ZM29.3721 14.2013V14.1075V14.2013ZM26.2738 15.4692L26.3397 15.5359L26.2738 15.4692ZM25.3893 16.3431L25.4552 16.4098L25.3893 16.3431ZM22.7402 16.3431L22.6743 16.4098L22.7402 16.3431ZM22.7402 13.7259L22.6743 13.6592L22.7402 13.7259ZM23.6248 12.852L23.6907 12.9187L23.6248 12.852ZM29.3721 10.5V10.4062V10.5ZM35.1194 12.852L35.1853 12.7853L35.1194 12.852ZM37.5 18.5302H37.5937H37.5ZM35.1194 24.2084L35.0535 24.1417L35.1194 24.2084ZM31.6031 27.6823L31.5372 27.6157L31.5366 27.6162L31.6031 27.6823ZM22.1505 17.8395C21.0652 17.8395 19.9908 18.0535 18.9902 18.4689L19.0621 18.642C20.0399 18.2361 21.0898 18.027 22.1505 18.027V17.8395ZM25.3108 18.4689C24.3102 18.0535 23.2358 17.8395 22.1505 17.8395V18.027C23.2111 18.027 24.2611 18.2361 25.2389 18.642L25.3108 18.4689ZM26.3623 21.0152C26.7838 20.0243 26.3119 18.8845 25.3108 18.4689L25.2389 18.642C26.1452 19.0183 26.5699 20.0482 26.1898 20.9418L26.3623 21.0152ZM23.7876 22.0543C24.7882 22.4697 25.9411 22.0055 26.3623 21.0152L26.1898 20.9418C25.8095 21.836 24.7664 22.2576 23.8595 21.8811L23.7876 22.0543ZM22.1505 21.7283C22.7127 21.7283 23.2693 21.8391 23.7876 22.0543L23.8595 21.8811C23.3184 21.6565 22.7374 21.5408 22.1505 21.5408V21.7283ZM20.5134 22.0543C21.0317 21.8391 21.5882 21.7283 22.1505 21.7283V21.5408C21.5636 21.5408 20.9826 21.6565 20.4415 21.8811L20.5134 22.0543ZM19.1322 22.9812C19.5256 22.5846 19.9951 22.2694 20.5134 22.0543L20.4415 21.8811C19.9004 22.1058 19.41 22.4348 18.9991 22.8492L19.1322 22.9812ZM19.1185 22.995L19.1319 22.9815L18.9994 22.8488L18.986 22.8623L19.1185 22.995ZM15.5955 26.4755L19.1181 22.9953L18.9863 22.8619L15.4638 26.3421L15.5955 26.4755ZM14.3401 29.4698C14.3401 28.347 14.7915 27.2698 15.5955 26.4755L15.4638 26.3421C14.6244 27.1714 14.1526 28.2965 14.1526 29.4698H14.3401ZM15.5955 32.4641C14.7915 31.6698 14.3401 30.5927 14.3401 29.4698H14.1526C14.1526 30.6432 14.6243 31.7682 15.4638 32.5975L15.5955 32.4641ZM18.6279 33.705C17.4903 33.705 16.3996 33.2585 15.5955 32.4641L15.4638 32.5975C16.3031 33.4268 17.4413 33.8925 18.6279 33.8925V33.705ZM21.6603 32.4641C20.8562 33.2585 19.7655 33.705 18.6279 33.705V33.8925C19.8145 33.8925 20.9527 33.4268 21.7921 32.5975L21.6603 32.4641ZM22.5448 31.5902L21.6603 32.4641L21.7921 32.5975L22.6766 31.7236L22.5448 31.5902ZM25.3257 31.5902C24.5576 30.8314 23.3129 30.8314 22.5448 31.5902L22.6766 31.7236C23.3716 31.037 24.4989 31.037 25.1939 31.7236L25.3257 31.5902ZM25.3257 34.3408C26.0943 33.5814 26.0943 32.3496 25.3257 31.5902L25.1939 31.7236C25.8883 32.4096 25.8882 33.5214 25.1939 34.2074L25.3257 34.3408ZM24.4411 35.2147L25.3257 34.3408L25.1939 34.2074L24.3093 35.0813L24.4411 35.2147ZM18.6279 37.5937C20.8081 37.5937 22.8992 36.7381 24.4411 35.2147L24.3093 35.0813C22.8027 36.5698 20.7591 37.4062 18.6279 37.4062V37.5937ZM12.8147 35.2147C14.3567 36.7381 16.4478 37.5938 18.6279 37.5937V37.4062C16.4968 37.4062 14.4531 36.5698 12.9465 35.0813L12.8147 35.2147ZM10.4062 29.4698C10.4062 31.6248 11.2727 33.6913 12.8147 35.2147L12.9465 35.0813C11.4399 33.5929 10.5937 31.5743 10.5938 29.4698H10.4062ZM12.8147 23.7249C11.2727 25.2484 10.4063 27.3149 10.4062 29.4698H10.5938C10.5938 27.3653 11.4399 25.3468 12.9465 23.8583L12.8147 23.7249ZM16.331 20.251L12.8147 23.7249L12.9465 23.8583L16.4628 20.3844L16.331 20.251ZM18.9902 18.4689C17.9928 18.8829 17.0886 19.4889 16.3304 20.2516L16.4633 20.3838C17.204 19.6388 18.0874 19.0467 19.0621 18.642L18.9902 18.4689ZM25.8495 30.1605C26.9348 30.1605 28.0092 29.9465 29.0098 29.5311L28.9379 29.358C27.9601 29.7639 26.9102 29.973 25.8495 29.973L25.8495 30.1605ZM22.6892 29.5311C23.6898 29.9465 24.7642 30.1605 25.8495 30.1605L25.8495 29.973C24.7889 29.973 23.7389 29.7639 22.7611 29.358L22.6892 29.5311ZM21.6377 26.9848C21.2162 27.9757 21.6881 29.1155 22.6892 29.5311L22.7611 29.358C21.8548 28.9817 21.4301 27.9518 21.8102 27.0582L21.6377 26.9848ZM24.2124 25.9457C23.2118 25.5303 22.0589 25.9945 21.6377 26.9848L21.8102 27.0582C22.1905 26.164 23.2336 25.7424 24.1405 26.1189L24.2124 25.9457ZM25.8495 26.2717C25.2873 26.2717 24.7307 26.1609 24.2124 25.9457L24.1405 26.1189C24.6816 26.3435 25.2626 26.4592 25.8495 26.4592L25.8495 26.2717ZM27.4866 25.9457C26.9683 26.1609 26.4118 26.2717 25.8495 26.2717L25.8495 26.4592C26.4364 26.4592 27.0174 26.3435 27.5585 26.1189L27.4866 25.9457ZM28.8678 25.0188C28.4744 25.4154 28.0049 25.7305 27.4866 25.9457L27.5585 26.1189C28.0996 25.8942 28.59 25.5651 29.0009 25.1508L28.8678 25.0188ZM28.8815 25.005L28.8681 25.0185L29.0006 25.1512L29.014 25.1377L28.8815 25.005ZM32.4045 21.5245L28.8819 25.0047L29.0137 25.1381L32.5362 21.6579L32.4045 21.5245ZM33.6599 18.5302C33.6599 19.653 33.2085 20.7301 32.4045 21.5245L32.5362 21.6579C33.3756 20.8285 33.8474 19.7035 33.8474 18.5302H33.6599ZM32.4045 15.5359C33.2085 16.3302 33.6599 17.4073 33.6599 18.5302H33.8474C33.8474 17.3568 33.3757 16.2318 32.5362 15.4025L32.4045 15.5359ZM29.3721 14.295C30.5097 14.295 31.6004 14.7415 32.4045 15.5359L32.5362 15.4025C31.6969 14.5732 30.5587 14.1075 29.3721 14.1075V14.295ZM26.3397 15.5359C27.1438 14.7415 28.2345 14.295 29.3721 14.295V14.1075C28.1855 14.1075 27.0473 14.5732 26.2079 15.4025L26.3397 15.5359ZM25.4552 16.4098L26.3397 15.5359L26.2079 15.4025L25.3234 16.2764L25.4552 16.4098ZM22.6743 16.4098C23.4424 17.1686 24.6871 17.1686 25.4552 16.4098L25.3234 16.2764C24.6284 16.963 23.5011 16.963 22.8061 16.2764L22.6743 16.4098ZM22.6743 13.6592C21.9057 14.4186 21.9057 15.6504 22.6743 16.4098L22.8061 16.2764C22.1117 15.5904 22.1117 14.4786 22.8061 13.7926L22.6743 13.6592ZM23.5589 12.7853L22.6743 13.6592L22.8061 13.7926L23.6907 12.9187L23.5589 12.7853ZM29.3721 10.4062C27.1919 10.4063 25.1008 11.2619 23.5589 12.7853L23.6907 12.9187C25.1973 11.4302 27.2409 10.5938 29.3721 10.5938V10.4062ZM35.1853 12.7853C33.6433 11.2619 31.5522 10.4062 29.3721 10.4062V10.5938C31.5032 10.5937 33.5469 11.4302 35.0535 12.9187L35.1853 12.7853ZM37.5937 18.5302C37.5937 16.3752 36.7273 14.3087 35.1853 12.7853L35.0535 12.9187C36.5601 14.4071 37.4062 16.4257 37.4062 18.5302H37.5937ZM35.1853 24.2751C36.7273 22.7516 37.5937 20.6851 37.5937 18.5302H37.4062C37.4062 20.6347 36.5601 22.6532 35.0535 24.1417L35.1853 24.2751ZM31.669 27.749L35.1853 24.2751L35.0535 24.1417L31.5372 27.6157L31.669 27.749ZM29.0098 29.5311C30.0072 29.117 30.9114 28.5111 31.6696 27.7484L31.5366 27.6162C30.7959 28.3612 29.9126 28.9533 28.9379 29.358L29.0098 29.5311Z" fill="#FD6A84"/>
</g>
<defs>
<clipPath id="clip0_353_2276">
<rect width="27" height="27" fill="white" transform="translate(10.5 10.5)"/>
</clipPath>
</defs>
</svg>
