<svg width="128" height="128" viewBox="0 0 128 128" fill="none" xmlns="http://www.w3.org/2000/svg">
<rect width="128" height="128" rx="40" fill="#FF69B4"/>
<g clip-path="url(#clip0_353_2273)">
<path fill-rule="evenodd" clip-rule="evenodd" d="M50.7364 49.4812C53.3742 48.3861 56.2067 47.822 59.068 47.822C61.9292 47.822 64.7617 48.3861 67.3995 49.4812C69.9428 50.537 71.1382 53.4299 70.0695 55.9426C69.0008 58.4553 66.0727 59.6364 63.5294 58.5805C62.1169 57.9941 60.6001 57.692 59.068 57.692C57.5358 57.692 56.019 57.9941 54.6065 58.5805C53.194 59.1669 51.9141 60.0259 50.8418 61.1072L50.8059 61.1429L41.4124 70.4235C39.2212 72.5884 37.9902 75.5246 37.9902 78.5862C37.9902 81.6478 39.2212 84.584 41.4124 86.7489C43.6036 88.9137 46.5756 90.13 49.6744 90.13C52.7733 90.13 55.7452 88.9137 57.9365 86.7489L60.2953 84.4184C62.246 82.4912 65.4087 82.4912 67.3594 84.4184C69.3101 86.3457 69.3101 89.4703 67.3594 91.3976L65.0006 93.728C60.9358 97.7439 55.4229 100 49.6744 100C43.926 100 38.413 97.7439 34.3483 93.728C30.2835 89.7122 28 84.2655 28 78.5862C28 72.9069 30.2836 67.4602 34.3483 63.4444L43.725 54.1804C45.7235 52.1703 48.1069 50.5728 50.7364 49.4812Z" fill="white"/>
<path fill-rule="evenodd" clip-rule="evenodd" d="M77.2636 78.5188C74.6258 79.6139 71.7933 80.178 68.932 80.178C66.0708 80.178 63.2383 79.6139 60.6005 78.5188C58.0572 77.4629 56.8618 74.5701 57.9305 72.0573C58.9992 69.5446 61.9273 68.3636 64.4706 69.4195C65.8831 70.0059 67.3999 70.3079 68.932 70.3079C70.4642 70.3079 71.981 70.0059 73.3935 69.4195C74.806 68.833 76.0859 67.9741 77.1582 66.8928L77.1941 66.857L86.5876 57.5765C88.7788 55.4116 90.0098 52.4754 90.0098 49.4138C90.0098 46.3522 88.7788 43.416 86.5876 41.2511C84.3964 39.0862 81.4244 37.87 78.3256 37.87C75.2267 37.87 72.2548 39.0862 70.0635 41.2511L67.7047 43.5816C65.754 45.5088 62.5913 45.5088 60.6406 43.5816C58.6899 41.6543 58.6899 38.5297 60.6406 36.6024L62.9994 34.272C67.0642 30.2561 72.5771 28 78.3256 28C84.074 28 89.587 30.2561 93.6517 34.272C97.7164 38.2878 100 43.7345 100 49.4138C100 55.0931 97.7164 60.5398 93.6517 64.5556L84.275 73.8196C82.2764 75.8297 79.8931 77.4272 77.2636 78.5188Z" fill="white"/>
<path d="M50.7364 49.4812L50.6405 49.2503L50.7364 49.4812ZM67.3995 49.4812L67.3037 49.7121L67.3995 49.4812ZM63.5294 58.5805L63.4336 58.8114L63.5294 58.5805ZM54.6065 58.5805L54.7024 58.8114L54.6065 58.5805ZM50.8418 61.1072L51.0184 61.2841L51.0193 61.2832L50.8418 61.1072ZM50.8059 61.1429L50.9816 61.3208L50.9825 61.3199L50.8059 61.1429ZM41.4124 70.4235L41.2367 70.2457L41.4124 70.4235ZM41.4124 86.7489L41.5881 86.571L41.4124 86.7489ZM49.6744 90.13V90.38V90.13ZM57.9365 86.7489L58.1122 86.9267L57.9365 86.7489ZM60.2953 84.4184L60.1196 84.2406L60.2953 84.4184ZM67.3594 84.4184L67.1837 84.5963L67.3594 84.4184ZM67.3594 91.3976L67.1837 91.2197L67.3594 91.3976ZM65.0006 93.728L65.1763 93.9059L65.0006 93.728ZM49.6744 100V100.25V100ZM34.3483 93.728L34.1726 93.9059L34.3483 93.728ZM28 78.5862H27.75H28ZM34.3483 63.4444L34.1726 63.2665L34.3483 63.4444ZM43.725 54.1804L43.9007 54.3583L43.9023 54.3567L43.725 54.1804ZM68.932 80.178V80.428V80.178ZM77.2636 78.5188L77.1677 78.2879L77.2636 78.5188ZM60.6005 78.5188L60.6963 78.2879L60.6005 78.5188ZM57.9305 72.0573L58.1605 72.1552L57.9305 72.0573ZM64.4706 69.4195L64.5664 69.1886L64.4706 69.4195ZM73.3935 69.4195L73.4893 69.6504L73.3935 69.4195ZM77.1582 66.8928L76.9816 66.7159L76.9807 66.7168L77.1582 66.8928ZM77.1941 66.857L77.0184 66.6792L77.0175 66.6801L77.1941 66.857ZM86.5876 57.5765L86.4119 57.3986L86.5876 57.5765ZM78.3256 37.87V37.62V37.87ZM70.0635 41.2511L70.2392 41.429L70.0635 41.2511ZM67.7047 43.5816L67.8804 43.7594L67.7047 43.5816ZM60.6406 43.5816L60.4649 43.7594L60.6406 43.5816ZM60.6406 36.6024L60.4649 36.4246L60.6406 36.6024ZM62.9994 34.272L63.1751 34.4498L62.9994 34.272ZM78.3256 28V27.75V28ZM93.6517 34.272L93.8274 34.0941L93.6517 34.272ZM100 49.4138H100.25H100ZM93.6517 64.5556L93.476 64.3778L93.6517 64.5556ZM84.275 73.8196L84.0993 73.6417L84.0977 73.6433L84.275 73.8196ZM59.068 47.572C56.1739 47.572 53.3088 48.1426 50.6405 49.2503L50.8323 49.7121C53.4396 48.6296 56.2396 48.072 59.068 48.072V47.572ZM67.4954 49.2503C64.8271 48.1426 61.9621 47.572 59.068 47.572V48.072C61.8964 48.072 64.6963 48.6296 67.3037 49.7121L67.4954 49.2503ZM70.2996 56.0405C71.4234 53.3981 70.1651 50.3586 67.4954 49.2503L67.3037 49.7121C69.7206 50.7154 70.853 53.4618 69.8395 55.8448L70.2996 56.0405ZM63.4336 58.8114C66.1018 59.9191 69.1764 58.6813 70.2996 56.0405L69.8395 55.8448C68.8252 58.2294 66.0437 59.3536 63.6253 58.3496L63.4336 58.8114ZM59.068 57.942C60.5673 57.942 62.0515 58.2376 63.4336 58.8114L63.6253 58.3496C62.1823 57.7506 60.633 57.442 59.068 57.442V57.942ZM54.7024 58.8114C56.0845 58.2376 57.5686 57.942 59.068 57.942V57.442C57.503 57.442 55.9536 57.7506 54.5107 58.3496L54.7024 58.8114ZM51.0193 61.2832C52.0682 60.2256 53.3203 59.3852 54.7024 58.8114L54.5107 58.3496C53.0677 58.9487 51.76 59.8263 50.6643 60.9311L51.0193 61.2832ZM50.9825 61.3199L51.0184 61.2841L50.6652 60.9302L50.6293 60.966L50.9825 61.3199ZM41.5881 70.6014L50.9816 61.3208L50.6302 60.9651L41.2367 70.2457L41.5881 70.6014ZM38.2402 78.5862C38.2402 75.5919 39.4441 72.7196 41.5881 70.6014L41.2367 70.2457C38.9983 72.4572 37.7402 75.4573 37.7402 78.5862H38.2402ZM41.5881 86.571C39.4441 84.4528 38.2402 81.5805 38.2402 78.5862H37.7402C37.7402 81.7151 38.9983 84.7152 41.2367 86.9267L41.5881 86.571ZM49.6744 89.88C46.6409 89.88 43.7322 88.6894 41.5881 86.571L41.2367 86.9267C43.475 89.1381 46.5102 90.38 49.6744 90.38V89.88ZM57.7608 86.571C55.6166 88.6894 52.708 89.88 49.6744 89.88V90.38C52.8386 90.38 55.8738 89.1381 58.1122 86.9267L57.7608 86.571ZM60.1196 84.2406L57.7608 86.571L58.1122 86.9267L60.471 84.5963L60.1196 84.2406ZM67.5351 84.2406C65.487 82.2171 62.1677 82.2171 60.1196 84.2406L60.471 84.5963C62.3243 82.7652 65.3304 82.7652 67.1837 84.5963L67.5351 84.2406ZM67.5351 91.5754C69.5849 89.5503 69.5849 86.2657 67.5351 84.2406L67.1837 84.5963C69.0353 86.4256 69.0353 89.3904 67.1837 91.2197L67.5351 91.5754ZM65.1763 93.9059L67.5351 91.5754L67.1837 91.2197L64.8249 93.5502L65.1763 93.9059ZM49.6744 100.25C55.4882 100.25 61.0644 97.9683 65.1763 93.9059L64.8249 93.5502C60.8072 97.5195 55.3575 99.75 49.6744 99.75V100.25ZM34.1726 93.9059C38.2844 97.9683 43.8607 100.25 49.6744 100.25V99.75C43.9914 99.75 38.5416 97.5195 34.524 93.5502L34.1726 93.9059ZM27.75 78.5862C27.75 84.3328 30.0606 89.8434 34.1726 93.9059L34.524 93.5502C30.5065 89.581 28.25 84.1982 28.25 78.5862H27.75ZM34.1726 63.2665C30.0606 67.329 27.75 72.8396 27.75 78.5862H28.25C28.25 72.9742 30.5065 67.5914 34.524 63.6222L34.1726 63.2665ZM43.5493 54.0026L34.1726 63.2665L34.524 63.6222L43.9007 54.3583L43.5493 54.0026ZM50.6405 49.2503C47.9807 50.3545 45.5696 51.9705 43.5477 54.0042L43.9023 54.3567C45.8775 52.37 48.2331 50.7911 50.8323 49.7121L50.6405 49.2503ZM68.932 80.428C71.8261 80.428 74.6912 79.8574 77.3595 78.7497L77.1677 78.2879C74.5604 79.3704 71.7604 79.928 68.932 79.928V80.428ZM60.5046 78.7497C63.1729 79.8574 66.0379 80.428 68.932 80.428V79.928C66.1036 79.928 63.3037 79.3704 60.6963 78.2879L60.5046 78.7497ZM57.7004 71.9595C56.5766 74.6019 57.8349 77.6413 60.5046 78.7497L60.6963 78.2879C58.2794 77.2845 57.147 74.5382 58.1605 72.1552L57.7004 71.9595ZM64.5664 69.1886C61.8982 68.0809 58.8236 69.3187 57.7004 71.9595L58.1605 72.1552C59.1748 69.7706 61.9563 68.6464 64.3747 69.6504L64.5664 69.1886ZM68.932 70.0579C67.4327 70.0579 65.9485 69.7624 64.5664 69.1886L64.3747 69.6504C65.8177 70.2494 67.367 70.5579 68.932 70.5579V70.0579ZM73.2976 69.1886C71.9155 69.7623 70.4314 70.0579 68.932 70.0579V70.5579C70.497 70.5579 72.0464 70.2494 73.4893 69.6504L73.2976 69.1886ZM76.9807 66.7168C75.9318 67.7744 74.6797 68.6148 73.2976 69.1886L73.4893 69.6504C74.9323 69.0513 76.24 68.1737 77.3357 67.0689L76.9807 66.7168ZM77.0175 66.6801L76.9816 66.7159L77.3348 67.0698L77.3707 67.034L77.0175 66.6801ZM86.4119 57.3986L77.0184 66.6792L77.3698 67.0349L86.7633 57.7543L86.4119 57.3986ZM89.7598 49.4138C89.7598 52.4081 88.5559 55.2804 86.4119 57.3986L86.7633 57.7543C89.0017 55.5428 90.2598 52.5427 90.2598 49.4138H89.7598ZM86.4119 41.429C88.5559 43.5472 89.7598 46.4195 89.7598 49.4138H90.2598C90.2598 46.2849 89.0017 43.2848 86.7633 41.0733L86.4119 41.429ZM78.3256 38.12C81.3591 38.12 84.2678 39.3106 86.4119 41.429L86.7633 41.0733C84.525 38.8619 81.4898 37.62 78.3256 37.62V38.12ZM70.2392 41.429C72.3834 39.3106 75.292 38.12 78.3256 38.12V37.62C75.1614 37.62 72.1262 38.8619 69.8878 41.0733L70.2392 41.429ZM67.8804 43.7594L70.2392 41.429L69.8878 41.0733L67.529 43.4037L67.8804 43.7594ZM60.4649 43.7594C62.513 45.7829 65.8323 45.7829 67.8804 43.7594L67.529 43.4037C65.6757 45.2348 62.6696 45.2348 60.8163 43.4037L60.4649 43.7594ZM60.4649 36.4246C58.4151 38.4497 58.4151 41.7343 60.4649 43.7594L60.8163 43.4037C58.9647 41.5744 58.9647 38.6096 60.8163 36.7803L60.4649 36.4246ZM62.8237 34.0941L60.4649 36.4246L60.8163 36.7803L63.1751 34.4498L62.8237 34.0941ZM78.3256 27.75C72.5118 27.75 66.9356 30.0317 62.8237 34.0941L63.1751 34.4498C67.1928 30.4805 72.6425 28.25 78.3256 28.25V27.75ZM93.8274 34.0941C89.7155 30.0317 84.1393 27.75 78.3256 27.75V28.25C84.0086 28.25 89.4584 30.4805 93.476 34.4498L93.8274 34.0941ZM100.25 49.4138C100.25 43.6672 97.9394 38.1566 93.8274 34.0941L93.476 34.4498C97.4935 38.419 99.75 43.8018 99.75 49.4138H100.25ZM93.8274 64.7335C97.9394 60.671 100.25 55.1604 100.25 49.4138H99.75C99.75 55.0258 97.4935 60.4086 93.476 64.3778L93.8274 64.7335ZM84.4507 73.9974L93.8274 64.7335L93.476 64.3778L84.0993 73.6417L84.4507 73.9974ZM77.3595 78.7497C80.0193 77.6455 82.4303 76.0295 84.4523 73.9958L84.0977 73.6433C82.1225 75.63 79.7669 77.2089 77.1677 78.2879L77.3595 78.7497Z" fill="#FD6A84"/>
</g>
<defs>
<clipPath id="clip0_353_2273">
<rect width="72" height="72" fill="white" transform="translate(28 28)"/>
</clipPath>
</defs>
</svg>
