<svg width="184" height="33" viewBox="0 0 184 33" fill="none" xmlns="http://www.w3.org/2000/svg">
<path d="M9.31223 25.2C7.66957 25.2 6.28823 24.696 5.16823 23.688V30.52C5.16823 31.1547 4.92557 31.6773 4.44023 32.088C3.99223 32.536 3.43223 32.76 2.76023 32.76C2.0509 32.76 1.45357 32.5547 0.968234 32.144C0.482901 31.7333 0.240234 31.2107 0.240234 30.576V10.304C0.240234 9.70667 0.464234 9.20267 0.912234 8.792C1.39757 8.344 2.01357 8.12 2.76023 8.12C3.32023 8.12 3.80557 8.26933 4.21623 8.568C4.6269 8.86667 4.9069 9.24 5.05623 9.688C6.32557 8.456 7.80023 7.84 9.48023 7.84C11.9442 7.84 13.9042 8.624 15.3602 10.192C16.8536 11.7227 17.6002 13.8133 17.6002 16.464C17.6002 19.1147 16.8536 21.2427 15.3602 22.848C13.8669 24.416 11.8509 25.2 9.31223 25.2ZM8.92023 20.664C10.0776 20.664 10.9922 20.272 11.6642 19.488C12.3736 18.6667 12.7282 17.6587 12.7282 16.464C12.7282 15.232 12.3736 14.2427 11.6642 13.496C10.9922 12.7493 10.0776 12.376 8.92023 12.376C7.80023 12.376 6.88557 12.7493 6.17623 13.496C5.50423 14.2427 5.16823 15.232 5.16823 16.464C5.16823 17.6587 5.50423 18.6667 6.17623 19.488C6.88557 20.272 7.80023 20.664 8.92023 20.664Z" fill="#343A40"/>
<path d="M29.4097 25.2C26.871 25.2 24.7243 24.4533 22.9697 22.96C21.2523 21.4293 20.3937 19.3387 20.3937 16.688C20.3937 13.9253 21.2337 11.76 22.9137 10.192C24.631 8.624 26.7777 7.84 29.3537 7.84C31.183 7.84 32.695 8.176 33.8897 8.848C35.0843 9.52 35.9803 10.3787 36.5777 11.424C37.175 12.4693 37.4737 13.5707 37.4737 14.728C37.4737 16.6693 36.615 17.64 34.8977 17.64H25.6017C25.303 17.64 25.1537 17.8267 25.1537 18.2C25.1537 19.0587 25.6203 19.7493 26.5537 20.272C27.5243 20.7573 28.607 21 29.8017 21C30.5483 21 31.295 20.9067 32.0417 20.72C32.7883 20.496 33.4417 20.1787 34.0017 19.768C34.375 19.5067 34.767 19.376 35.1777 19.376C35.7377 19.376 36.2043 19.5813 36.5777 19.992C36.9883 20.4027 37.1937 20.888 37.1937 21.448C37.1937 22.12 36.839 22.7547 36.1297 23.352C35.4577 23.912 34.4683 24.36 33.1617 24.696C31.8923 25.032 30.6417 25.2 29.4097 25.2ZM32.3217 14.392C32.3963 14.392 32.4897 14.3733 32.6017 14.336C32.751 14.2987 32.8257 14.168 32.8257 13.944C32.8257 13.384 32.471 12.88 31.7617 12.432C31.0897 11.9467 30.2123 11.704 29.1297 11.704C27.9723 11.704 27.0203 11.9653 26.2737 12.488C25.5643 12.9733 25.2097 13.4773 25.2097 14C25.2097 14.2613 25.359 14.392 25.6577 14.392H32.3217Z" fill="#343A40"/>
<path d="M49.2612 25.2C46.7226 25.2 44.5759 24.4533 42.8212 22.96C41.1039 21.4293 40.2452 19.3387 40.2452 16.688C40.2452 13.9253 41.0852 11.76 42.7652 10.192C44.4826 8.624 46.6292 7.84 49.2052 7.84C51.0346 7.84 52.5466 8.176 53.7412 8.848C54.9359 9.52 55.8319 10.3787 56.4292 11.424C57.0266 12.4693 57.3252 13.5707 57.3252 14.728C57.3252 16.6693 56.4666 17.64 54.7492 17.64H45.4532C45.1546 17.64 45.0052 17.8267 45.0052 18.2C45.0052 19.0587 45.4719 19.7493 46.4052 20.272C47.3759 20.7573 48.4586 21 49.6532 21C50.3999 21 51.1466 20.9067 51.8932 20.72C52.6399 20.496 53.2932 20.1787 53.8532 19.768C54.2266 19.5067 54.6186 19.376 55.0292 19.376C55.5892 19.376 56.0559 19.5813 56.4292 19.992C56.8399 20.4027 57.0452 20.888 57.0452 21.448C57.0452 22.12 56.6906 22.7547 55.9812 23.352C55.3092 23.912 54.3199 24.36 53.0132 24.696C51.7439 25.032 50.4932 25.2 49.2612 25.2ZM52.1732 14.392C52.2479 14.392 52.3412 14.3733 52.4532 14.336C52.6026 14.2987 52.6772 14.168 52.6772 13.944C52.6772 13.384 52.3226 12.88 51.6132 12.432C50.9412 11.9467 50.0639 11.704 48.9812 11.704C47.8239 11.704 46.8719 11.9653 46.1252 12.488C45.4159 12.9733 45.0612 13.4773 45.0612 14C45.0612 14.2613 45.2106 14.392 45.5092 14.392H52.1732Z" fill="#343A40"/>
<path d="M63.1899 25.2C62.4806 25.2 61.8833 24.9947 61.3979 24.584C60.9126 24.1733 60.6699 23.6507 60.6699 23.016V2.184C60.6699 1.58667 60.8939 1.08267 61.3419 0.671999C61.8273 0.223999 62.4433 0 63.1899 0C63.8993 0 64.4779 0.223999 64.9259 0.671999C65.3739 1.08267 65.5979 1.60533 65.5979 2.24V11.872C65.5979 12.32 65.7286 12.544 65.9899 12.544C66.0646 12.544 66.2139 12.4693 66.4379 12.32L71.8699 8.288C72.3179 7.98933 72.8033 7.84 73.3259 7.84C73.9606 7.84 74.4833 8.064 74.8939 8.512C75.3046 8.96 75.5099 9.48267 75.5099 10.08C75.5099 10.9013 75.1366 11.5547 74.3899 12.04L69.9659 14.952C69.5926 15.2133 69.4059 15.4933 69.4059 15.792C69.4059 16.0907 69.5553 16.3333 69.8539 16.52L74.9499 21.112C75.2859 21.3733 75.5099 21.672 75.6219 22.008C75.7339 22.344 75.7899 22.6613 75.7899 22.96C75.7899 23.5573 75.5473 24.08 75.0619 24.528C74.6139 24.976 74.0726 25.2 73.4379 25.2C72.8033 25.2 72.2433 24.9573 71.7579 24.472L66.2699 19.096C66.1579 18.984 66.0273 18.928 65.8779 18.928C65.6913 18.928 65.5979 19.0773 65.5979 19.376V22.96C65.5979 23.5947 65.3553 24.136 64.8699 24.584C64.4219 24.9947 63.8619 25.2 63.1899 25.2Z" fill="#343A40"/>
<path d="M85.8874 25.2C83.3861 25.2 81.3514 24.416 79.7834 22.848C78.2528 21.2427 77.4874 19.1147 77.4874 16.464C77.4874 13.8133 78.2341 11.7227 79.7274 10.192C81.2581 8.624 83.2554 7.84 85.7194 7.84C87.4741 7.84 89.0048 8.456 90.3114 9.688C90.4608 9.24 90.7408 8.86667 91.1514 8.568C91.5621 8.26933 92.0474 8.12 92.6074 8.12C93.3541 8.12 93.9514 8.344 94.3994 8.792C94.8848 9.20267 95.1274 9.70667 95.1274 10.304V23.016C95.1274 23.6507 94.8848 24.1733 94.3994 24.584C93.9514 24.9947 93.3541 25.2 92.6074 25.2C91.3754 25.2 90.6101 24.6587 90.3114 23.576C89.1168 24.6587 87.6421 25.2 85.8874 25.2ZM86.2794 20.664C87.4741 20.664 88.4261 20.272 89.1354 19.488C89.8448 18.6667 90.1994 17.6587 90.1994 16.464C90.1994 15.232 89.8448 14.2427 89.1354 13.496C88.4261 12.7493 87.4741 12.376 86.2794 12.376C85.1221 12.376 84.1701 12.7493 83.4234 13.496C82.7141 14.2427 82.3594 15.232 82.3594 16.464C82.3594 17.6587 82.7141 18.6667 83.4234 19.488C84.1701 20.272 85.1221 20.664 86.2794 20.664Z" fill="#343A40"/>
<path d="M108.406 25.2C106.726 25.2 105.307 24.6773 104.15 23.632C103.814 24.6773 103.049 25.2 101.854 25.2C101.145 25.2 100.547 24.9947 100.062 24.584C99.5767 24.1733 99.334 23.6507 99.334 23.016V2.184C99.334 1.58667 99.558 1.08267 100.006 0.671999C100.491 0.223999 101.107 0 101.854 0C102.563 0 103.142 0.223999 103.59 0.671999C104.038 1.08267 104.262 1.60533 104.262 2.24V9.576C105.531 8.41866 106.969 7.84 108.574 7.84C111.038 7.84 112.998 8.624 114.454 10.192C115.947 11.7227 116.694 13.8133 116.694 16.464C116.694 19.1147 115.947 21.2427 114.454 22.848C112.961 24.416 110.945 25.2 108.406 25.2ZM108.014 20.664C109.171 20.664 110.086 20.272 110.758 19.488C111.467 18.6667 111.822 17.6587 111.822 16.464C111.822 15.232 111.467 14.2427 110.758 13.496C110.086 12.7493 109.171 12.376 108.014 12.376C106.894 12.376 105.979 12.7493 105.27 13.496C104.598 14.2427 104.262 15.232 104.262 16.464C104.262 17.6587 104.598 18.6667 105.27 19.488C105.979 20.272 106.894 20.664 108.014 20.664Z" fill="#343A40"/>
<path fill-rule="evenodd" clip-rule="evenodd" d="M142.868 4.50485C144.327 5.10023 145.652 5.98064 146.765 7.0945C147.879 8.20836 148.76 9.53329 149.355 10.9917C149.929 12.3978 149.255 14.003 147.848 14.5771C146.442 15.1511 144.837 14.4766 144.263 13.0705C143.944 12.2895 143.473 11.58 142.876 10.9836C142.28 10.3871 141.57 9.91568 140.789 9.59686C140.008 9.27804 139.172 9.11825 138.328 9.12686L138.3 9.127L130.987 9.127C129.281 9.127 127.644 9.80473 126.438 11.0111C125.232 12.2175 124.554 13.8536 124.554 15.5597C124.554 17.2657 125.232 18.9019 126.438 20.1083C127.644 21.3146 129.281 21.9924 130.987 21.9924H132.823C134.342 21.9924 135.573 23.2236 135.573 24.7424C135.573 26.2611 134.342 27.4924 132.823 27.4924L130.987 27.4924C127.822 27.4924 124.787 26.2352 122.549 23.9974C120.311 21.7596 119.054 18.7244 119.054 15.5597C119.054 12.3949 120.311 9.35982 122.549 7.12201C124.787 4.88419 127.822 3.627 130.987 3.627L138.287 3.627C139.857 3.61296 141.414 3.91135 142.868 4.50485Z" fill="#FF69B4"/>
<path fill-rule="evenodd" clip-rule="evenodd" d="M141.754 26.2732C140.295 25.6778 138.971 24.7974 137.857 23.6836C136.743 22.5697 135.862 21.2448 135.267 19.7864C134.693 18.3803 135.368 16.775 136.774 16.201C138.18 15.627 139.785 16.3015 140.359 17.7076C140.678 18.4886 141.149 19.198 141.746 19.7945C142.342 20.391 143.052 20.8624 143.833 21.1812C144.614 21.5 145.45 21.6598 146.294 21.6512L146.322 21.6511L153.635 21.6511C155.342 21.6511 156.978 20.9733 158.184 19.767C159.39 18.5606 160.068 16.9244 160.068 15.2184C160.068 13.5123 159.39 11.8762 158.184 10.6698C156.978 9.46344 155.342 8.78571 153.635 8.78571L151.799 8.78571C150.28 8.78571 149.049 7.5545 149.049 6.03572C149.049 4.51693 150.28 3.28572 151.799 3.28571L153.635 3.28571C156.8 3.28571 159.835 4.5429 162.073 6.78071C164.311 9.01852 165.568 12.0536 165.568 15.2184C165.568 18.3831 164.311 21.4183 162.073 23.6561C159.835 25.8939 156.8 27.1511 153.635 27.1511L146.335 27.1511C144.765 27.1651 143.208 26.8667 141.754 26.2732Z" fill="#FF69B4"/>
<path d="M170.52 25.2C169.811 25.2 169.213 24.9947 168.728 24.584C168.243 24.1733 168 23.6507 168 23.016V2.184C168 1.58667 168.224 1.08267 168.672 0.671999C169.157 0.223999 169.773 0 170.52 0C171.229 0 171.808 0.223999 172.256 0.671999C172.704 1.08267 172.928 1.60533 172.928 2.24V11.872C172.928 12.32 173.059 12.544 173.32 12.544C173.395 12.544 173.544 12.4693 173.768 12.32L179.2 8.288C179.648 7.98933 180.133 7.84 180.656 7.84C181.291 7.84 181.813 8.064 182.224 8.512C182.635 8.96 182.84 9.48267 182.84 10.08C182.84 10.9013 182.467 11.5547 181.72 12.04L177.296 14.952C176.923 15.2133 176.736 15.4933 176.736 15.792C176.736 16.0907 176.885 16.3333 177.184 16.52L182.28 21.112C182.616 21.3733 182.84 21.672 182.952 22.008C183.064 22.344 183.12 22.6613 183.12 22.96C183.12 23.5573 182.877 24.08 182.392 24.528C181.944 24.976 181.403 25.2 180.768 25.2C180.133 25.2 179.573 24.9573 179.088 24.472L173.6 19.096C173.488 18.984 173.357 18.928 173.208 18.928C173.021 18.928 172.928 19.0773 172.928 19.376V22.96C172.928 23.5947 172.685 24.136 172.2 24.584C171.752 24.9947 171.192 25.2 170.52 25.2Z" fill="#343A40"/>
</svg>
